<?xml version="1.0" standalone="no"?>
<!DOCTYPE svg PUBLIC "-//W3C//DTD SVG 20010904//EN"
 "http://www.w3.org/TR/2001/REC-SVG-20010904/DTD/svg10.dtd">
<svg version="1.0" xmlns="http://www.w3.org/2000/svg"
 width="1324.000000pt" height="1322.000000pt" viewBox="0 0 1324.000000 1322.000000"
 preserveAspectRatio="xMidYMid meet">

<g transform="translate(0.000000,1322.000000) scale(0.100000,-0.100000)"
fill="#000000" stroke="none">
<path d="M6170 13029 c-1113 -81 -2104 -405 -3025 -987 -383 -243 -705 -501
-1049 -840 -962 -950 -1581 -2123 -1816 -3440 -66 -373 -93 -697 -93 -1122 0
-328 9 -489 44 -775 138 -1153 604 -2268 1327 -3180 1421 -1790 3632 -2681
5897 -2376 792 107 1602 383 2299 783 1369 787 2407 2059 2899 3553 219 664
317 1282 317 2000 0 1029 -218 1952 -677 2870 -610 1218 -1622 2234 -2829
2838 -764 382 -1471 583 -2354 667 -152 15 -782 21 -940 9z m911 -285 c875
-64 1752 -337 2554 -797 939 -538 1758 -1367 2287 -2317 383 -686 630 -1438
727 -2207 35 -274 45 -449 45 -778 0 -329 -10 -504 -45 -778 -138 -1094 -579
-2142 -1267 -3012 -1073 -1356 -2636 -2187 -4355 -2315 -192 -14 -702 -14
-894 0 -1471 110 -2827 729 -3867 1766 -755 753 -1292 1666 -1581 2684 -245
867 -292 1826 -134 2721 174 984 591 1918 1203 2699 293 374 679 759 1056
1056 781 615 1732 1038 2710 1208 520 90 997 111 1561 70z"/>
<path d="M6476 11799 c-453 -62 -794 -408 -847 -861 -34 -298 84 -612 308
-818 l66 -60 -25 -37 c-14 -21 -233 -360 -488 -753 -254 -393 -466 -719 -470
-723 -4 -5 -43 3 -86 16 -293 92 -615 42 -863 -133 -245 -174 -395 -450 -408
-750 -3 -74 -1 -155 6 -199 36 -227 158 -446 333 -596 32 -28 58 -53 58 -56 0
-8 -829 -1572 -838 -1580 -4 -4 -50 4 -102 18 -301 79 -620 9 -866 -189 -305
-245 -433 -655 -322 -1033 88 -304 326 -554 621 -655 118 -40 194 -52 322 -52
272 0 497 93 691 286 132 133 222 292 263 466 l18 75 882 3 c748 2 881 0 881
-12 0 -28 52 -193 80 -254 94 -203 269 -376 481 -477 190 -90 438 -114 644
-61 284 73 540 285 659 547 27 59 76 220 76 250 0 18 24 19 973 13 534 -4 976
-10 980 -14 5 -4 15 -38 22 -75 48 -227 186 -440 378 -581 173 -127 326 -181
542 -191 190 -8 333 23 498 111 260 136 451 394 508 686 22 110 15 309 -14
420 -90 346 -341 604 -684 706 -67 20 -119 27 -218 31 -146 6 -242 -5 -349
-42 -55 -18 -74 -21 -83 -12 -12 12 -951 1609 -960 1634 -3 8 26 47 74 96 128
130 203 261 255 443 20 68 23 102 23 244 0 181 -13 249 -77 395 -97 223 -299
419 -528 512 -134 54 -205 67 -370 67 -160 0 -211 -8 -339 -55 -44 -16 -57
-18 -66 -7 -7 7 -225 348 -485 757 -395 620 -471 746 -459 755 165 123 293
308 356 512 25 83 27 101 27 269 0 168 -2 186 -27 269 -107 347 -392 611 -731
680 -97 20 -237 26 -320 15z m285 -596 c254 -118 316 -455 121 -649 -185 -183
-483 -155 -625 59 -132 199 -60 473 153 582 68 35 114 45 200 42 71 -2 97 -8
151 -34z m-416 -1306 c95 -29 387 -31 480 -5 33 10 69 20 80 23 17 5 85 -96
503 -753 265 -417 482 -763 482 -768 0 -5 -30 -38 -66 -74 -116 -115 -197
-253 -251 -429 -25 -79 -27 -100 -27 -261 0 -162 2 -182 28 -265 54 -176 130
-305 261 -435 l76 -77 -452 -784 c-248 -431 -460 -798 -470 -816 l-20 -32 -72
25 c-202 69 -423 70 -623 4 -36 -12 -69 -18 -73 -14 -8 9 -907 1557 -930 1602
-12 22 -7 29 67 105 127 130 202 261 254 443 20 68 23 102 23 244 0 142 -3
176 -23 245 -53 182 -141 332 -266 454 -42 40 -76 77 -76 82 0 5 192 305 427
666 234 362 455 702 490 757 57 86 67 97 86 91 12 -4 54 -17 92 -28z m-858
-3962 c250 -429 461 -794 470 -811 l15 -30 -77 -75 c-86 -83 -168 -199 -213
-304 -35 -81 -72 -207 -72 -247 l0 -28 -880 0 -879 0 -6 38 c-13 77 -58 210
-101 292 -52 102 -152 228 -229 290 -38 31 -54 51 -51 62 3 15 822 1565 832
1577 2 2 39 -6 83 -18 161 -44 363 -44 519 0 42 11 84 25 92 30 8 5 21 8 29 6
8 -1 218 -353 468 -782z m2767 749 c159 -48 376 -47 536 2 47 14 93 26 102 27
12 2 143 -213 497 -816 265 -451 481 -823 481 -828 0 -5 -32 -39 -70 -76 -125
-118 -221 -284 -266 -462 -13 -52 -25 -96 -27 -97 -1 -1 -440 1 -975 4 -696 3
-975 8 -976 16 -64 272 -127 397 -277 552 l-79 80 406 705 c223 387 435 755
471 817 52 90 69 112 82 106 9 -4 51 -18 95 -30z"/>
</g>
</svg>
