<?xml version="1.0" standalone="no"?>
<!DOCTYPE svg PUBLIC "-//W3C//DTD SVG 20010904//EN"
 "http://www.w3.org/TR/2001/REC-SVG-20010904/DTD/svg10.dtd">
<svg version="1.0" xmlns="http://www.w3.org/2000/svg"
 width="1230.000000pt" height="1256.000000pt" viewBox="0 0 1230.000000 1256.000000"
 preserveAspectRatio="xMidYMid meet">

<g transform="translate(0.000000,1256.000000) scale(0.100000,-0.100000)"
fill="#000000" stroke="none">
<path d="M9495 11956 c-21 -13 -45 -32 -52 -43 -21 -31 -33 -148 -33 -322 0
-164 -4 -193 -41 -277 -19 -44 -86 -109 -122 -117 -12 -3 -49 -12 -82 -20 -33
-8 -132 -18 -219 -22 -180 -7 -210 -16 -260 -78 -27 -33 -31 -47 -31 -96 0
-48 5 -64 28 -94 52 -68 62 -71 256 -79 97 -4 194 -10 216 -13 61 -9 140 -52
183 -99 51 -56 69 -121 77 -276 8 -161 21 -255 41 -285 8 -13 32 -36 52 -51
30 -23 45 -28 97 -28 53 0 65 4 92 28 59 53 67 82 74 286 5 114 12 199 21 220
31 82 83 139 161 174 61 29 86 33 272 47 168 12 209 28 254 96 35 52 39 89 15
136 -45 90 -85 108 -254 118 -168 10 -239 19 -246 30 -3 5 -13 9 -23 9 -23 0
-112 87 -132 130 -48 100 -57 155 -63 361 -5 199 -8 208 -94 262 -55 35 -129
36 -187 3z"/>
<path d="M3820 11809 c-190 -11 -364 -25 -470 -39 -106 -13 -338 -39 -450 -50
-176 -17 -370 -45 -475 -69 -22 -5 -87 -18 -145 -30 -310 -62 -333 -67 -550
-126 -245 -67 -375 -132 -482 -238 -30 -30 -38 -46 -38 -73 0 -30 9 -44 58
-92 59 -58 138 -103 247 -142 33 -12 69 -25 80 -30 21 -10 146 -46 205 -60 19
-4 76 -20 125 -35 91 -27 110 -32 225 -59 163 -40 150 -37 335 -71 50 -9 119
-21 155 -26 36 -6 88 -14 115 -19 339 -55 371 -58 965 -92 275 -15 1063 -14
1395 2 635 32 864 52 1155 100 30 6 100 17 155 25 156 24 185 31 360 80 328
93 471 144 645 228 63 31 165 134 175 175 10 48 -32 129 -87 169 -49 34 -146
81 -233 113 -254 92 -268 96 -545 149 -30 5 -93 18 -140 27 -47 9 -107 20
-135 24 -27 5 -93 15 -145 24 -52 8 -135 20 -185 27 -49 6 -115 15 -145 19
-191 27 -395 50 -520 59 -80 5 -210 15 -290 22 -177 14 -1159 20 -1360 8z"/>
<path d="M7993 11180 c-27 -112 -77 -202 -158 -278 -100 -96 -176 -145 -365
-238 -126 -61 -132 -64 -205 -89 -27 -9 -57 -19 -65 -23 -8 -3 -70 -24 -138
-47 -68 -23 -124 -45 -125 -51 -2 -10 70 -17 408 -39 246 -16 304 -22 460 -50
151 -27 179 -32 214 -44 19 -6 36 -9 38 -8 1 2 3 193 3 426 1 414 1 422 -20
456 -12 19 -25 35 -28 35 -4 0 -13 -22 -19 -50z"/>
<path d="M788 11184 c-47 -73 -49 -109 -46 -844 l3 -685 24 -50 c27 -58 147
-180 206 -211 22 -12 56 -30 75 -41 19 -11 58 -28 85 -38 28 -10 55 -21 60
-25 6 -4 53 -23 105 -44 52 -21 104 -42 115 -46 11 -5 31 -12 45 -16 14 -3 43
-15 65 -25 51 -23 270 -95 350 -115 33 -9 76 -20 95 -25 43 -12 101 -26 200
-45 121 -25 160 -32 255 -49 91 -16 162 -29 245 -44 25 -5 97 -16 160 -26 287
-42 460 -60 820 -85 80 -6 188 -15 240 -20 52 -5 182 -16 289 -24 154 -12 197
-18 212 -32 22 -20 21 -20 39 26 37 99 160 336 206 397 13 17 24 35 24 38 0 6
47 72 60 85 3 3 30 39 61 80 99 132 480 507 576 567 15 10 62 43 103 74 41 31
136 91 210 134 74 43 142 84 151 92 8 7 22 13 30 13 8 0 25 9 38 19 l25 19
-86 7 c-87 7 -317 -2 -893 -36 -629 -37 -1331 -13 -1827 61 -38 6 -96 15 -130
20 -35 5 -97 12 -138 15 -137 10 -352 47 -480 81 -103 28 -125 33 -215 49
-118 21 -308 72 -355 97 -8 4 -69 25 -135 47 -146 48 -161 54 -455 189 -40 18
-215 132 -245 159 -60 54 -125 184 -137 273 -3 24 -5 23 -30 -16z m854 -1014
c119 -81 175 -236 136 -374 -30 -105 -181 -190 -282 -156 -51 16 -112 90 -120
143 -19 127 -18 196 2 241 26 55 117 165 145 175 28 11 78 -2 119 -29z"/>
<path d="M10983 10754 c-12 -3 -41 -26 -63 -51 l-40 -46 0 -192 c0 -106 -3
-221 -7 -256 -6 -58 -10 -67 -53 -109 -54 -55 -56 -55 -290 -71 -97 -6 -177
-17 -195 -25 -126 -58 -152 -196 -55 -289 30 -29 35 -30 158 -37 248 -12 322
-33 381 -104 37 -46 48 -98 66 -319 15 -174 18 -192 41 -222 40 -53 70 -68
140 -68 55 0 67 4 101 31 56 45 72 100 73 254 0 125 17 258 38 295 16 30 60
65 111 88 44 20 75 24 337 45 99 8 129 24 173 91 67 100 -20 251 -144 251 -84
0 -330 30 -360 44 -44 22 -100 85 -118 136 -10 27 -17 76 -17 120 0 41 -5 129
-10 194 -11 132 -22 161 -81 208 -29 23 -47 29 -100 32 -35 3 -74 2 -86 0z"/>
<path d="M6918 10155 c-2 -3 -45 -9 -94 -14 -156 -17 -233 -32 -374 -72 -19
-6 -51 -14 -70 -19 -69 -18 -326 -126 -405 -170 -100 -57 -299 -181 -350 -219
-175 -131 -400 -348 -521 -501 -32 -41 -65 -81 -71 -88 -7 -7 -13 -17 -13 -21
0 -4 -8 -16 -18 -27 -29 -31 -166 -251 -225 -361 -82 -153 -117 -243 -186
-478 -9 -28 -25 -118 -51 -278 -17 -107 -23 -380 -11 -502 30 -311 62 -441
181 -750 82 -211 256 -493 428 -695 93 -109 338 -347 415 -404 75 -55 274
-186 283 -186 3 0 30 -16 60 -35 30 -19 56 -35 59 -35 2 0 53 -23 111 -51 59
-27 155 -66 213 -85 142 -46 154 -49 246 -69 44 -9 96 -20 115 -25 201 -48
618 -52 925 -9 166 23 227 37 273 61 22 11 27 9 65 -33 123 -133 174 -197 212
-269 53 -101 67 -124 168 -285 108 -172 162 -243 208 -276 l29 -21 45 26 c25
15 57 43 72 64 52 69 261 267 306 290 24 12 58 22 76 22 24 0 31 4 31 20 0 39
-34 107 -117 233 -87 131 -236 372 -259 417 -41 82 -74 164 -74 186 0 27 50
81 100 108 28 16 320 312 390 396 252 304 414 576 494 830 50 162 62 217 96
455 19 134 23 460 6 590 -23 184 -55 341 -86 420 -4 11 -16 49 -26 85 -9 36
-25 83 -35 105 -9 22 -30 69 -45 105 -63 147 -168 337 -250 452 -49 68 -93
128 -99 135 -174 201 -289 316 -448 448 -50 42 -211 151 -279 189 -194 108
-354 173 -533 217 -44 11 -97 24 -117 30 -21 5 -55 13 -75 18 -77 20 -248 47
-434 70 -85 11 -331 15 -341 6z m512 -590 c36 -9 81 -20 100 -24 47 -11 268
-86 333 -114 163 -70 331 -171 477 -288 76 -60 275 -256 323 -318 36 -46 117
-161 117 -167 0 -3 13 -24 29 -47 71 -105 140 -244 179 -362 83 -249 112 -406
112 -613 0 -144 -5 -199 -31 -367 -54 -342 -195 -658 -418 -935 -95 -119 -149
-172 -266 -265 -80 -64 -306 -215 -321 -215 -3 0 -30 -16 -60 -35 -30 -19 -57
-35 -61 -35 -4 0 -25 -9 -47 -19 -168 -79 -321 -134 -451 -161 -33 -7 -73 -16
-89 -21 -38 -12 -345 -12 -399 0 -23 5 -69 15 -102 21 -126 25 -214 48 -270
70 -11 5 -65 25 -120 45 -153 56 -215 84 -335 152 -19 11 -57 32 -85 48 -237
131 -591 500 -730 761 -26 49 -51 94 -55 99 -8 11 -63 153 -84 217 -57 173
-86 373 -86 573 1 172 41 464 80 575 40 115 110 287 140 345 21 39 48 90 61
115 13 25 26 47 29 50 3 3 30 39 62 80 31 41 64 86 74 99 11 14 62 70 114 124
144 151 303 277 484 383 123 73 246 134 269 134 9 0 18 4 21 9 3 5 16 11 28
14 13 2 50 12 83 22 231 66 303 75 580 70 189 -2 266 -7 315 -20z"/>
<path d="M6885 9298 c-63 -10 -80 -14 -210 -48 -44 -12 -91 -24 -105 -27 -38
-9 -256 -120 -334 -170 -97 -63 -265 -198 -255 -207 5 -4 280 21 349 33 88 14
173 33 283 61 193 51 405 103 512 125 17 4 39 10 50 15 11 4 49 16 85 26 36 9
99 33 140 51 112 51 114 52 133 55 34 6 19 22 -40 44 -32 11 -65 23 -73 27
-50 20 -437 31 -535 15z"/>
<path d="M7955 8967 c-16 -5 -46 -20 -65 -32 -39 -24 -80 -43 -160 -75 -30
-12 -72 -30 -93 -41 -22 -10 -43 -19 -48 -19 -5 0 -42 -15 -82 -34 -70 -33
-230 -88 -352 -122 -33 -9 -69 -20 -80 -24 -34 -14 -78 -28 -140 -45 -33 -10
-73 -23 -90 -30 -78 -34 -212 -66 -370 -89 -60 -10 -135 -21 -166 -26 -30 -6
-75 -10 -100 -10 -25 0 -70 -4 -100 -10 -30 -5 -130 -14 -224 -19 -181 -10
-262 -28 -309 -68 -23 -20 -38 -58 -56 -143 -5 -19 -20 -73 -35 -120 -73 -234
-78 -268 -78 -490 0 -147 4 -215 17 -275 10 -44 20 -95 23 -113 3 -18 9 -35
14 -38 5 -3 9 -14 9 -24 0 -17 22 -79 60 -175 4 -11 16 -42 26 -70 9 -27 24
-60 32 -72 17 -27 35 -28 192 -13 58 5 164 15 235 21 251 21 413 46 580 90 22
6 110 14 195 18 161 8 181 13 257 63 44 29 263 119 413 168 263 87 578 299
595 401 10 58 8 1318 -2 1359 -12 46 -55 72 -98 57z m-1004 -570 c103 -55 111
-76 120 -299 4 -103 11 -183 17 -191 12 -14 98 -32 197 -42 91 -9 143 -27 187
-64 103 -88 102 -248 -2 -318 -40 -28 -40 -28 -200 -43 -206 -20 -212 -28
-218 -255 -4 -157 -5 -161 -31 -189 -52 -56 -142 -80 -208 -55 -37 13 -103 78
-103 100 0 10 -4 20 -9 23 -4 3 -11 27 -14 53 -28 231 -48 274 -142 303 -22 7
-50 16 -63 21 -13 5 -48 9 -79 9 -79 0 -221 28 -265 52 -39 22 -50 50 -41 103
10 64 69 155 120 186 39 24 131 48 185 49 36 0 203 25 240 36 23 7 37 74 47
229 10 142 15 173 38 225 30 69 48 80 129 80 39 0 82 -6 95 -13z"/>
<path d="M7925 6940 c-3 -5 -13 -10 -20 -10 -8 0 -63 -31 -122 -68 -60 -37
-119 -73 -133 -79 -77 -34 -99 -43 -109 -43 -6 0 -19 -4 -29 -9 -28 -14 -64
-28 -117 -46 -27 -9 -58 -21 -67 -26 -10 -5 -26 -9 -36 -9 -10 0 -22 -4 -28
-9 -5 -4 -38 -16 -74 -25 -36 -10 -78 -21 -95 -26 -16 -5 -57 -16 -90 -25 -83
-22 -196 -56 -220 -66 -11 -4 -42 -13 -70 -19 -27 -6 -68 -16 -90 -21 -22 -6
-60 -14 -85 -19 -165 -30 -221 -41 -265 -50 -27 -6 -88 -18 -135 -26 -107 -18
-120 -23 -120 -37 0 -10 56 -54 84 -66 5 -2 63 -39 128 -83 217 -145 408 -223
658 -269 91 -17 425 -23 494 -9 126 25 260 81 406 170 79 47 100 58 165 83 22
9 54 21 71 28 l31 13 6 245 c7 298 -2 463 -28 491 -20 22 -98 29 -110 10z"/>
<path d="M814 9053 c-19 -14 -39 -94 -63 -258 -7 -46 -8 -261 -3 -630 l7 -560
28 -50 c31 -56 88 -120 144 -162 21 -15 40 -30 43 -33 17 -18 135 -67 260
-109 36 -12 74 -26 85 -31 11 -5 45 -19 75 -31 30 -11 69 -26 85 -34 17 -7 53
-20 80 -30 28 -9 59 -21 70 -25 24 -11 153 -53 210 -68 22 -6 74 -21 115 -33
41 -11 91 -25 110 -29 19 -5 78 -21 130 -35 105 -30 138 -38 255 -61 128 -25
177 -35 220 -44 22 -4 74 -13 115 -20 41 -6 89 -16 106 -21 17 -5 47 -9 66 -9
20 0 58 -4 85 -10 26 -5 167 -16 313 -25 146 -9 297 -20 335 -25 103 -13 471
-23 559 -15 88 9 85 -8 30 162 -47 143 -66 218 -87 353 -15 98 -15 528 1 650
24 187 45 298 64 337 18 37 3 43 -110 43 -59 0 -147 5 -197 11 -49 6 -126 15
-170 19 -44 5 -116 14 -160 19 -249 31 -393 47 -650 70 -162 15 -372 46 -470
69 -22 6 -74 18 -115 27 -41 9 -93 20 -115 25 -22 5 -62 13 -90 19 -27 5 -79
17 -115 26 -36 9 -81 20 -100 25 -50 11 -180 52 -285 90 -49 17 -151 52 -225
76 -246 82 -338 128 -473 238 -104 84 -141 104 -163 89z m817 -897 c60 -25
123 -104 148 -185 25 -77 4 -195 -45 -256 -38 -48 -125 -95 -175 -95 -110 0
-199 127 -199 283 0 106 49 193 140 245 42 25 86 27 131 8z"/>
<path d="M11010 8072 c-37 -4 -60 -20 -92 -65 -18 -25 -21 -51 -27 -235 -10
-314 -16 -321 -276 -322 -134 0 -169 -3 -214 -20 -92 -33 -141 -96 -141 -180
0 -39 6 -53 35 -88 60 -70 76 -74 292 -82 181 -6 194 -8 217 -29 53 -50 83
-139 93 -281 3 -52 12 -109 20 -127 21 -51 68 -98 112 -113 36 -12 45 -11 80
5 92 41 131 127 131 285 0 104 28 209 62 238 8 6 83 11 178 13 269 5 303 15
361 107 49 77 35 139 -47 211 -57 50 -54 49 -346 73 -140 11 -148 13 -165 37
-27 38 -41 94 -48 196 -22 316 -21 315 -76 353 -26 18 -95 29 -149 24z"/>
<path d="M821 7044 c-32 -23 -52 -75 -64 -164 -14 -113 -20 -1112 -7 -1187 15
-86 43 -135 130 -223 79 -81 164 -130 330 -190 19 -7 50 -19 67 -27 18 -7 81
-31 140 -52 109 -39 181 -66 218 -81 41 -17 162 -59 215 -76 30 -9 82 -25 115
-35 33 -11 74 -24 91 -29 28 -9 70 -19 149 -35 17 -4 39 -10 50 -15 11 -4 56
-15 100 -25 44 -9 98 -20 120 -25 139 -31 235 -47 360 -61 102 -11 132 -15
340 -44 128 -17 230 -31 335 -45 182 -24 622 -50 855 -50 229 0 685 26 885 50
102 13 260 29 450 46 96 8 202 19 235 23 106 14 284 54 279 62 -3 5 -22 16
-42 25 -134 61 -241 110 -392 182 -66 31 -295 180 -405 263 -84 63 -332 277
-429 369 -121 115 -277 304 -322 389 -10 20 -21 38 -24 41 -3 3 -19 31 -35 64
l-30 59 -105 -9 c-146 -12 -302 -10 -455 4 -129 13 -234 20 -540 41 -88 6
-191 16 -230 21 -38 6 -97 15 -130 20 -33 5 -112 16 -175 25 -63 9 -133 20
-155 25 -22 5 -67 13 -100 19 -320 53 -618 126 -780 191 -35 14 -78 28 -170
55 -246 73 -462 148 -556 195 -87 44 -116 65 -179 130 -84 86 -105 97 -139 74z
m795 -910 c44 -21 112 -97 147 -165 54 -107 30 -229 -61 -309 -86 -76 -168
-75 -247 5 -66 66 -79 97 -79 195 -1 91 16 152 63 223 42 65 107 84 177 51z"/>
<path d="M10735 6279 c-45 -22 -77 -98 -92 -221 -3 -26 -11 -51 -17 -56 -15
-10 -72 -29 -116 -37 -115 -21 -180 -79 -180 -161 0 -26 9 -40 41 -67 22 -19
55 -38 72 -41 18 -3 55 -17 83 -30 61 -28 74 -51 100 -168 16 -69 25 -89 55
-119 99 -99 299 -32 299 100 0 41 19 150 30 171 4 8 34 24 66 36 188 67 204
79 204 152 0 38 -6 55 -31 85 -17 20 -35 37 -41 37 -5 0 -24 6 -41 13 -18 8
-50 20 -72 27 -48 16 -54 23 -105 125 -43 85 -78 128 -122 151 -31 16 -103 18
-133 3z"/>
<path d="M793 5008 c-10 -14 -29 -95 -38 -168 -3 -25 -10 -74 -15 -110 -11
-83 -2 -1000 11 -1060 28 -132 154 -271 309 -342 19 -9 89 -35 155 -58 102
-36 171 -63 280 -110 31 -13 103 -37 185 -60 41 -12 86 -26 100 -30 14 -5 52
-16 85 -25 33 -9 69 -21 80 -25 11 -4 56 -16 100 -25 44 -10 131 -31 194 -47
136 -34 258 -55 446 -77 101 -12 199 -27 263 -41 23 -6 55 -10 71 -10 15 0 41
-4 57 -9 29 -10 175 -24 414 -42 69 -4 179 -13 245 -18 373 -29 490 -33 1044
-28 348 2 602 9 641 15 36 6 103 16 150 21 148 18 313 42 360 51 25 5 79 14
120 20 41 7 111 18 155 26 44 8 104 19 133 25 196 35 312 58 342 69 14 4 52
16 85 25 33 9 89 25 125 36 88 26 269 76 360 100 41 11 85 24 98 29 33 15 63
27 102 40 54 20 173 70 283 119 58 27 145 87 207 144 l53 49 -13 111 c-7 62
-14 139 -17 172 -7 83 20 217 55 273 58 94 64 112 59 176 -2 34 -9 79 -15 102
-11 40 -73 164 -97 194 -22 27 -89 144 -125 215 -25 51 -41 71 -57 73 -12 2
-68 -11 -125 -28 -57 -18 -119 -36 -138 -40 -19 -5 -82 -20 -140 -35 -58 -15
-121 -30 -140 -35 -64 -16 -134 -37 -235 -73 -55 -19 -122 -43 -150 -52 -27
-10 -57 -21 -65 -25 -9 -4 -31 -11 -50 -15 -19 -4 -55 -14 -80 -22 -42 -14
-115 -32 -217 -54 -24 -5 -64 -14 -90 -19 -120 -27 -462 -68 -788 -96 -325
-28 -520 -35 -1145 -40 -627 -5 -908 5 -1170 41 -58 8 -148 20 -200 26 -538
63 -611 76 -875 158 -55 18 -118 37 -140 43 -64 17 -446 150 -705 245 -180 66
-264 107 -356 174 -70 51 -87 59 -126 59 -25 0 -50 -6 -55 -12z m835 -837 c43
-22 79 -59 113 -116 51 -85 59 -142 37 -262 -11 -55 -20 -74 -56 -114 -100
-112 -239 -100 -304 26 -11 22 -25 48 -30 59 -18 34 -12 229 8 282 20 55 67
130 86 137 31 13 111 6 146 -12z"/>
<path d="M9400 4562 c0 -47 -128 -158 -220 -191 -61 -23 -74 -28 -120 -48 -25
-11 -72 -42 -105 -70 -33 -27 -70 -55 -82 -63 -11 -8 -63 -45 -115 -81 -107
-76 -133 -85 -243 -92 -111 -7 -166 -37 -229 -127 -31 -45 -31 -46 -30 -170 0
-124 1 -126 36 -190 131 -243 162 -295 299 -508 155 -242 219 -345 226 -362 3
-8 59 -98 124 -200 104 -165 349 -575 349 -585 0 -2 34 -61 76 -132 42 -70 88
-148 102 -173 14 -25 38 -64 53 -87 16 -23 29 -44 29 -48 0 -3 16 -31 35 -61
19 -30 35 -57 35 -60 0 -5 99 -159 152 -236 10 -15 18 -30 18 -33 0 -4 11 -21
25 -39 14 -18 25 -36 25 -39 0 -3 13 -25 28 -49 16 -24 86 -135 157 -248 185
-295 208 -319 367 -380 29 -11 62 -24 73 -29 30 -13 73 -28 140 -47 90 -26
396 -26 480 0 185 58 292 123 421 258 183 190 259 370 252 590 -4 129 -7 138
-120 326 -37 62 -68 115 -68 117 0 3 -33 58 -73 123 -84 134 -161 261 -189
312 -11 19 -26 42 -34 51 -8 8 -14 18 -14 22 0 4 -35 62 -78 130 -44 67 -81
127 -83 132 -2 6 -29 48 -59 95 -30 47 -60 95 -67 105 -11 18 -103 171 -128
213 -6 9 -44 69 -86 132 -41 63 -108 169 -149 235 -40 66 -102 166 -137 222
-35 57 -63 104 -63 107 0 2 -47 79 -105 170 -58 92 -105 169 -105 171 0 2 -32
54 -70 115 -39 61 -79 128 -90 148 -11 20 -36 64 -55 97 -19 33 -63 114 -97
179 -107 208 -217 289 -425 312 -59 6 -63 5 -63 -14z m-276 -1069 c62 -62 117
-151 231 -367 31 -61 72 -134 91 -163 19 -29 34 -56 34 -59 0 -2 8 -17 18 -32
10 -15 41 -61 69 -102 113 -169 140 -240 111 -292 -56 -96 -172 -120 -270 -55
-31 21 -122 146 -164 227 -10 19 -38 65 -61 102 -24 36 -43 69 -43 73 0 3 -30
52 -67 108 -37 56 -76 118 -87 137 -10 19 -26 46 -35 60 -31 48 -41 65 -48 80
-4 8 -9 17 -12 20 -23 20 -71 120 -71 149 0 39 39 90 94 121 41 24 63 30 112
30 57 0 63 -2 98 -37z m788 -1452 c60 -14 128 -99 228 -286 30 -55 84 -149
122 -208 37 -59 68 -110 68 -112 0 -2 31 -54 68 -117 84 -140 158 -291 166
-339 4 -21 2 -48 -4 -60 -16 -36 -74 -69 -119 -69 -90 0 -163 59 -256 209 -6
9 -28 43 -51 76 -23 33 -71 119 -109 190 -37 72 -111 193 -165 270 -86 124
-108 159 -141 227 -18 36 -10 89 20 131 61 88 96 106 173 88z"/>
<path d="M833 2905 c-17 -8 -41 -28 -54 -46 -20 -28 -23 -48 -30 -203 -12
-270 -9 -1204 4 -1251 38 -138 166 -237 402 -309 50 -16 149 -48 220 -72 72
-23 177 -57 235 -75 58 -17 119 -37 135 -45 39 -17 259 -77 355 -97 124 -26
134 -28 170 -36 216 -52 279 -62 605 -96 77 -8 169 -19 205 -24 376 -55 474
-62 1325 -91 524 -18 860 3 1355 86 52 9 163 26 245 39 83 13 206 33 275 44
69 11 157 25 195 31 124 20 313 66 520 126 83 24 202 57 265 73 323 84 423
125 611 253 64 43 120 78 124 78 10 0 29 22 45 55 13 25 15 130 18 690 2 363
1 688 -3 722 -5 49 -12 69 -35 93 -33 35 -90 43 -90 13 -1 -41 -39 -102 -80
-128 -57 -36 -172 -85 -305 -129 -61 -20 -118 -41 -127 -46 -10 -6 -23 -10
-29 -10 -6 0 -41 -15 -77 -33 -94 -47 -248 -98 -447 -147 -93 -23 -179 -45
-190 -50 -11 -5 -36 -11 -55 -14 -19 -3 -66 -13 -105 -21 -171 -37 -242 -49
-400 -70 -303 -39 -245 -34 -645 -56 -237 -12 -1850 4 -2085 21 -364 27 -440
36 -800 98 -93 16 -186 32 -205 35 -112 18 -224 40 -290 59 -41 11 -97 26
-125 34 -27 8 -68 20 -90 28 -22 7 -67 21 -100 31 -95 27 -196 62 -248 84 -51
22 -196 72 -342 117 -104 32 -233 93 -256 120 -13 16 -22 40 -45 122 -4 15
-10 14 -51 -3z m774 -900 c49 -20 69 -39 107 -100 65 -103 78 -161 63 -276
-13 -94 -41 -145 -103 -187 -45 -31 -54 -33 -113 -30 -62 4 -66 6 -107 51 -52
58 -74 126 -74 230 0 78 26 200 53 254 36 69 98 90 174 58z"/>
</g>
</svg>
